<svg xmlns="http://www.w3.org/2000/svg" xmlns:xlink="http://www.w3.org/1999/xlink" width="657.2" height="755.2" viewBox="0 0 173.9 199.8"><style>.b{fill:#9a741c}.c{fill:#d7df23}.d{opacity:.999}.e{opacity:.98}.f{fill-rule:evenodd}.g{fill:#8d3803}.h{fill:#d78e55}.i{fill:#c92238}.j{fill:#f0536e}.k{stroke:#8f3b06}.l{stroke-width:.156}.m{fill:#ea8528}.n{fill:#f9c393}.o{fill:#fbe6d7}.p{fill:#915a26}.q{opacity:.981}.r{stroke-width:.265}.s{fill:#da251d}.t{fill:#00923f}.u{fill:#e7c21e}.v{fill:#ffe96b}.w{stroke-width:.556}</style><path d="M29.9-.2c0 5-2.3 20.5-22.4 35.6C20 67.2-4.8 92 1.5 131.9c8.7 55.5 54.7 41 85.4 68 30.8-27 76.7-12.5 85.5-68 6.2-39.8-18.6-64.7-6-96.5C146.3 20.3 144 4.9 144-.2L87 0z" class="s"/><path fill="#fff" d="M34 4.5c-1.2 7.7-6 20.2-21 32.4 5.2 16 2 30.6-1.6 44.9-3.8 15.3-8.2 30.6-5.2 49.4 4.1 26.4 15.8 34.6 31.5 41 14.8 6 33.3 9.2 49.2 21.5 16-12.3 34.5-15.5 49.2-21.5 15.7-6.4 27.5-14.6 31.6-41 3-18.8-1.4-34.1-5.3-49.4-3.6-14.3-6.8-28.9-1.6-44.9a54 54 0 0 1-21-32.4L87 4.7z"/><path d="M37.3 8.5c-2 8-7.4 19-19.7 29.8 4.4 16 1.1 30.8-2.3 44.5-4 15.3-8 29.9-5.2 47.8 4 25.3 14 31.8 29.1 38 13.5 5.4 31.5 8.6 47.7 20.2 16.3-11.6 34.2-14.8 47.7-20.3 15.2-6.1 25.2-12.6 29.2-38 2.8-17.8-1.3-32.4-5.2-47.7-3.4-13.7-6.7-28.4-2.3-44.5a60 60 0 0 1-19.7-29.8L87 8.7z" class="t"/><g class="d"><use xlink:href="#H" stroke="#986105" class="u w"/><g class="v"><use xlink:href="#I"/><use xlink:href="#J"/><use xlink:href="#K"/><use xlink:href="#L"/><use xlink:href="#M"/><use xlink:href="#N"/><path d="M43.7 102.4c-5-4.9-12.5-4.6-15.2-12 4 6 12.1 5.2 15.2 12"/><use xlink:href="#O"/><use xlink:href="#P"/><use xlink:href="#Q"/></g></g><g class="d" transform="matrix(-1 0 0 1 174.7 0)"><use xlink:href="#H" x=".4" stroke="#986105" class="u w"/><g class="v"><use xlink:href="#I" x=".4"/><use xlink:href="#J" x=".4"/><use xlink:href="#K" x=".4"/><use xlink:href="#L" x=".4"/><use xlink:href="#M" x=".4"/><use xlink:href="#N" x=".4"/><path d="M44.1 102.4c-5-5-12.5-4.6-15.2-12 4 6 12.1 5.2 15.2 12"/><use xlink:href="#O" x=".4"/><use xlink:href="#P" x=".4"/><use xlink:href="#Q" x=".4"/></g></g><path fill="#dbdbdb" stroke="#727272" stroke-width=".6" d="M36.4 130.2c2 .4 4.1 18.2 29.6 25.7 2.4.6 4.1-3 5.4-3 1.5-.1 2.8 1.3 4.3 2 1.2.2 2-2.2 3.2-2.2 1.7 0 2.7 1.5 4 1.5 2 .1 2.2-1.8 4-1.8s2 2 4 1.8c1.4 0 2.4-1.5 4.1-1.5 1.2 0 2 2.4 3.2 2.1 1.5-.6 2.8-2 4.2-2s3 3.7 5.4 3.1c25.6-7.5 27.6-25.3 29.6-25.7-9.1 1.4-7.7 4.1-9 5.7-.6.4-1.6-.2-2.3-.3-.8 1.4.3 3-3 2.8-1.8-1-2.7-2.9-5.1-3H56c-2.5.1-3.5 2-5.2 3-3.3.1-2.2-1.4-3-2.8-.8 0-1.7.7-2.2.3-1.4-1.6 0-4.3-9.2-5.7z"/><path fill="#fff" d="M56 139c-.3 0-.2 0-.6.4s-1.3 1.3-2.7 2.1l-1.7.5q-1.5.1-2.9-.4c3.7 4 9.3 7.9 18.3 10.6l.3-.2 1.3-1.3c.6-.5 1.3-1.4 3.3-1.5q2.9.2 4.1 1.3h.1l.2-.2c.6-.5 1.6-1.2 3.1-1.2h.2c1.9 0 3.2.9 3.9 1.3.8-.6 2.2-1.6 4-1.6s3.3 1 4 1.6h.1c.7-.4 2-1.2 3.8-1.3h.2q2.3.2 3.2 1.3l.2.1c1-.6 2.3-1.4 4.2-1.3s2.7 1 3.3 1.5l1.3 1.3.3.2c9-2.7 14.6-6.7 18.2-10.6q-1.4.4-2.8.4l-1.7-.5q-2-1.3-2.7-2.1c-.7-.8-.4-.3-.6-.4h-31z"/><g class="s" transform="translate(0 -1.2)"><use xlink:href="#A"/><path d="M65.7 148.7H65l-.3-.8h-1.2l-.3.8h-.7l1.3-3.6h.6zm-1.2-1.4-.4-1.4-.4 1.4z"/><use xlink:href="#B"/><path d="M69.2 148.7v-3.6h.6v3.6z"/><use xlink:href="#A" x="11.2"/><use xlink:href="#C"/><path d="M77.5 148.7v-3.6h.6v3.6z"/><use xlink:href="#D"/><path d="M84.6 147.4v-.6H86v1.4l-.6.4-.8.2q-.5 0-.8-.3t-.6-.6l-.2-1q0-.6.2-1t.6-.7.8-.2q.6 0 .9.3t.4.8l-.6.1q0-.3-.3-.4-.1-.2-.4-.2t-.7.3q-.2.3-.2 1t.2 1 .7.3l.4-.1.3-.3v-.4z"/><use xlink:href="#C" x="12.5"/><use xlink:href="#D" x="10"/><path d="M93.1 148.7v-3.6h2.4v.6h-1.7v.8h1.6v.6h-1.6v1h1.7v.6zm4.2 0v-3.6h2.2v.6h-1.6v.8h1.3v.7H98v1.5z"/><use xlink:href="#E"/><path d="M103.9 148.7v-3h-1v-.6h2.5v.6h-1v3z"/><use xlink:href="#E" x="5.9"/><use xlink:href="#B" x="43"/><use xlink:href="#E" x="12.2"/></g><path fill="#22c9c1" d="M87 58.8c-9.5.4-61.6 22-21.6 77.3h43.1c40-55.3-12.1-77-21.6-77.3" class="f"/><path fill="#28166f" d="M122.7 91.1H51.2c-2.3 11.5.7 26.3 14.2 45h43.1c13.5-18.7 16.5-33.5 14.2-45"/><defs><path id="A" d="M59.2 148.7v-3.6h1l.5 2.5.6-2.5h1v3.6h-.7v-2.9l-.6 3h-.6l-.6-3v3z"/><path id="B" d="M66 148.7v-3.6h2.1l.4.4.1.6q0 .4-.2.7l-.6.3.3.3.4.6.4.7H68l-.5-.8-.3-.5-.2-.2h-.4v1.5zm.7-2h.4l.6-.1.2-.2v-.6l-.3-.1h-.9z"/><path id="C" d="m74 147 .1-1 .3-.5.4-.4.7-.1q.7 0 1.1.5t.4 1.4-.4 1.4-1.1.5-1.1-.5-.4-1.4m.6-.1q0 .6.3 1 .2.3.6.3t.6-.4.3-1-.3-.9-.6-.3-.6.3-.3 1"/><path id="D" d="M80 148.7v-3.6h.6l1.3 2.4v-2.4h.6v3.6h-.7l-1.3-2.4v2.4z"/><path id="E" d="M100 145h.6v2.7q0 .2.2.3l.4.2q.3 0 .5-.2l.1-.3v-2.6h.7v2.9l-.3.4-.3.3h-1.3l-.4-.3-.2-.5v-.9z"/><path id="G" d="m87.7 85.9-1.5 4.4 1.5 2-6.1-2 3.8 2.8 2.3-.8-3.8 5.2 3.8-2.7v-2.5l3.8 5.2-1.5-4.4-2.3-.8 6.1-2h-4.7l-1.4 2z"/><path id="H" d="M55 136.8h3.5c.4-6.7-18.4-31.3-11.4-52.6a47 47 0 0 1 12.1-17l6.4-6.5c3.1-3 2.7-5.9 2.2-9.4-1-6.4-4.8-11-2.1-20-2.5 3.7-8.8 6-6.3 16.2 3 12 4 12 1.4 15.8-.9-3.7.3-5.5-3.4-12.2-2-3.8-1.4-6.8-2-10.2-2 3.1-6.9 6.3-1.8 16.1q4.9 9.6.2 13.2c1-4.8-1.6-8.4-2.8-11.1-1.2-3-2.5-3.2-3-9.7-1.4 3.1-5.7 5-.7 15 1.8 3.5 4.8 6.5 2.1 12-.6-3.5-3.2-6.8-5-9.7-3-5.2-2-6.7-2.7-9-3 3.3-4.5 6.9-.8 13.5 2 3.5 6.1 6.5 3.8 11.5-.3-3.2-3.3-5.7-5.6-8.6-2-2.6-2.5-5.2-3.4-7.8-1.6 3.5-5.4 6.8 1.6 14 3 3 6.1 6 5.8 9.3-1.9-2-2.7-3.7-7-5.9-2.6-1.4-4-4-5.5-6.5-.8 3.3-2.8 7.6 3.6 12.4 3.3 2.5 7.4 4.1 8.5 8.7a29 29 0 0 0-7.7-4.2 13 13 0 0 1-7.4-7c.8 4.4 0 9.1 5.4 12.7 4.2 2.7 11.9 3.2 12.2 8.2a25 25 0 0 0-9.3-3.5c-5.9-1-7-4-8.7-4.8 1.1 4.7 2.1 9 10 11 4 1 9.4 1.1 11 6.5a15 15 0 0 0-9-2.7c-4.7 0-7.2-2-9-3.4 3.2 7.3 6.4 6.8 9.6 8 10.2 1.4 9 2.9 11 5.5-2.4-1.1-5-2.6-9.7-2.4a12 12 0 0 1-7.4-1.5c1.5 3 3 5.8 9 6.4 6 .5 12.4 3.5 12.4 9.7"/><path id="I" d="M65.5 58c.3-6.1-5.3-14.4-2-22.7-1.7 8.4 5.7 15 2 22.6"/><path id="J" d="M59.1 65c-.9-7.7-7-14-4.5-22.2C53.8 51.4 61.9 57 59 65"/><path id="K" d="M52 70.5c.5-6-7-11.6-4.5-18.9-.8 7.3 7.2 12 4.5 18.9"/><path id="L" d="M47.3 78.4c-1.2-6-8-10.8-6.3-18.4 0 7.3 8.4 11.3 6.3 18.4"/><path id="M" d="M44 85.5c-2.6-7.6-9.2-9.6-8.5-17.4 1 7.2 8.7 9.9 8.6 17.4"/><path id="N" d="M43.1 93.3c-3.5-5.5-11.4-7-12.6-14.7C33.3 85.4 41.4 86 43 93.3"/><path id="O" d="M45.9 110.7c-6-3.2-13.2-2-17.4-8.7 5.2 5.2 13 2.7 17.4 8.7"/><path id="P" d="M49 119.5c-5.5-4.4-12.4-.7-17.4-6.7 5.8 4.3 11.5-.2 17.3 6.7"/><path id="Q" d="M53 127.8c-5.6-4.2-12.4-.2-17.7-6 6 4.2 11.6-.7 17.7 6"/><path id="R" d="m78 169.8 2.7-.3.4.7q.3.2.7.2.6 0 1-.6.3-.4.4-1.9-.5.5-1 .7t-1.2.2q-1.4 0-2.3-.8-1-.9-1-2.2 0-.9.5-1.6t1.3-1.1 2.1-.4q1.5 0 2.5.5t1.4 1.4.6 2.7q0 2.4-1.2 3.5t-3.2 1.1q-1.2 0-1.9-.2t-1.1-.7-.7-1.2m5.1-4q0-.7-.4-1.1t-1-.5-1 .4-.3 1.1.4 1.2 1 .4 1-.4q.3-.4.3-1.1"/><path id="S" d="m240.8 90.4-.4-.1v-.7q.3-.4.7-.1l.2.3-.1.4z"/><path id="T" d="m240.8 89.5-.3.1a.4.4 0 0 0 0 .6.4.4 0 0 0 .6 0v-.6z"/><path id="U" d="m245.2 93.1-1-.2h-.1l-.6-.1q-.5 0-1-.6-.7-1-1.2-1l-1 .2h-.1v-.1l.2-.3.5-.2h.2l-.4-.2v-.1h.8l-.1-.8q.2 0 .3.3v-.2q0-.4.2-.5l.2-.3v1.1c.1.2 1 .8 1.4 1l.8.8.2.5v.2l.5.2h.4l.3.2z"/><path id="V" d="M241.3 91c.3 0 1 .8 1.4 1.1l.9.6h.5l.2.1 1 .2h.2l-.1-.2h-.4l-.6-.1v-.3l-.2-.4-.8-.8-1.4-1v-.9l-.1.5-.1.4-.1-.1-.2-.2.1.6h-.7l.3.2q0 .2-.3.3l-.4.1z"/><path id="W" d="m241.7 91 1.4.9q.8.5.7.6-.2.2-1-.6z"/><path id="X" d="M97.3 138.8c1 1 2.2 1.7 1.4 4 1.6-1.4 3.6-2.7 1.5-4.2 2.4-.4 3.7.2 1.8 3.5 2-.2 4-2 1.7-4.2 1.1 0 3.3-.7 2.2 4.1 1.8-1 3-2.3 1.9-4.6 2.7-.5 3 2.5 1.2 4 2.7.4 4.6-3 2.2-4.2 1.9 0 4.2 2 1.4 5 .9-.2 9-2.4-.3-6q-8.3-.4-15 2.6"/><path id="Y" d="M99.2 138.7c1.8.7 1.5 1.7.2 3 .5-1.2 1-2.3-.2-3"/><path id="Z" d="M103 137.9c.8.8 2 1.6.4 3.4q1-2-.5-3.4"/><path id="a" d="M100.5 138c5.5-1.5 8.4-1.4 11.5-1.5q-5.8.4-11.5 1.5"/><path id="b" d="M107 137.4c1 1.5.5 2.7-.4 3.8a5 5 0 0 0 .5-3.8"/><path id="c" d="M110.2 137q2.5 1.3 1 3.5c.6-1.8-.2-2.7-1-3.5"/><path id="d" d="M112.5 136.7c1.1.6 6 2 1.5 4.6.9-.6 3-2.4-1.5-4.6"/><path id="e" d="m233.7 129.8-.6-.3q-.5-.6-.4-1.7.1-1.6 1.3-1.8.3 0 .5.3.5.6.4 1.7-.2 1.7-1.2 1.8"/><path id="f" d="M234.8 128q-.1 1.7-1.2 1.8c-1 0-1-1-.8-2s.6-1.8 1.2-1.7 1 .9.8 1.9"/><path id="g" d="M234 127.2q-.1.7-.5.6t-.3-.8.6-.7q.5.3.3.9"/><path id="h" d="M233.9 126.6v1.4l-.2 1.2V128zm.2-.2.2.8v.8l-.2.7v-.9l.2-.8zm-.6 1.4v1.4l-.2-.1v-.6zm1 .4s0 .8-.4 1c-.3.2 0 .2 0 .2s.5-.5.4-1.2m-.8-1.8-.4.9-.1.5-.1.7q0 .2-.1 0v-.7l.3-.8z"/><path id="i" d="M236.4 129.7a3 3 0 0 1-3.3 2.2c-.4.8-1.2 1.9-1.3 1.7 0 0 .5-1.1.4-1.9a3 3 0 0 1 1-5.9v4l1.8-3.5a3 3 0 0 1 1.4 3.4"/><path id="j" d="M232.9 126.3q-1.6.3-2 2a2.7 2.7 0 1 0 5.1 1.3q.4-1.6-.9-2.8l-1.6 3.2a.4.4 0 0 1-.7-.2z"/><path id="k" d="M232.4 127q-.8.4-1.1 1.3-.3 2.2 1.6 2.8c1.9.6 2.4-.4 2.7-1.6q.2-1-.4-1.8l-1.3 2.5a.8.8 0 0 1-1.6-.4z"/><radialGradient id="F" cx="280.2" cy="103.5" r="9.7" fx="280.2" fy="103.5" gradientTransform="translate(-193.3)" gradientUnits="userSpaceOnUse"><stop offset="0" stop-color="#fff"/><stop offset=".1" stop-color="#fff"/><stop offset=".2" stop-color="#ffff04" stop-opacity=".9"/><stop offset=".3" stop-color="#ef9a48"/><stop offset=".4" stop-color="#b7673c"/><stop offset=".5" stop-color="#8f5444"/><stop offset=".6" stop-color="#b7673c"/><stop offset=".7" stop-color="#e3d70c" stop-opacity=".9"/><stop offset=".9" stop-color="#84c225"/><stop offset="1" stop-color="#00923f" stop-opacity=".9"/></radialGradient></defs><g class="f"><path fill="#986105" d="m87 22-2.5 7.5h-7.8L83 34l-2.4 7.4L87 37l6.4 4.6-2.4-7.4 6.3-4.6h-7.8z" class="q"/><path d="m87 23.5-2.2 6.4H78l5.5 4-2 6.5 5.4-4 5.5 4-2-6.5 5.4-4H89z" class="q u"/><g class="v" transform="translate(-40.6 -101.4)scale(1.45462)"><use xlink:href="#G" fill="#fbe7d8" class="q"/><use xlink:href="#G" class="q"/></g></g><g fill="#fff"><path d="M74.8 162.7v9h-2.9v-5.9l-1.3.8q-.6.3-1.6.5v-2q1.4-.4 2.2-1t1.3-1.4z"/><use xlink:href="#R"/><use xlink:href="#R" x="9.4"/><use xlink:href="#R" x="18.8"/></g><g class="f"><circle cx="86.9" cy="103.4" r="9.7" fill="url(#F)"/><g fill="#fff"><path d="M86.1 104.5h1.7v9.8H86z"/><path d="m75.8 114.3 2.4 23.8h17.5l2.4-23.8H86.9z" class="d"/></g></g><path d="m75.8 114.3 2.4 23.8h1.2l-.3-2.9v-1.4h.8v4.2h.8v-4.2h.8v4.2h.9v-4.2h.8v4.2h.8v-4.2h.9v4.2h.8v-4.2h.8v4.2h.9v-4.2h.8v4.2h.8v-4.2h.8v4.2h.9v-4.2h.8v4.2h.8v-4.2h.9v4.2h.8v-4.2h.8v1.4l-.3 3h1.2l.4-4.4v-1l2-18.5h-1.2l-.3 3.7-3 3.7L91 118l.2-3.7h-1L90 118l-3 3.7-3.1-3.7-.2-3.7h-1.2l.2 3.7-2.4 3.7-3-3.7-.4-3.7z" class="s"/><g fill="#fff" stroke="gray"><path d="M59 91.1h55.4c-6.7-1.9-16-12.3-27-8.3C76.5 77.5 71.3 90 59 91z" class="r"/><g stroke-width=".3"><path d="M87.4 76.7c-1.6.2-10 11.2-19.6 17.1h38.6c-8.6-3.5-14.4-17.7-19-17.1z"/><path d="M87.4 76.7c-.6 0-2.6 2-5 4.6l.6.6q.4.5.8.6.5.3.9.2l.9-.3.7-.7.7-.7 1-.4h.8l.7.2q.6.1 1 .5l.7.6 1 .6h.3l.4-.1.8-.6c-2.3-3-4.4-5.3-6.3-5.1z"/></g></g><path d="M97.8 116.7H76.1l-.2-1.2h22z"/><g transform="matrix(.10325 1.24032 -1.13726 -.08495 147.4 -194)"><use xlink:href="#S" class="b"/><use xlink:href="#T" class="c"/><use xlink:href="#S" x="-.1" y=".6" class="b"/><use xlink:href="#T" x="-.1" y=".6" class="c"/><use xlink:href="#S" x=".5" y="-.1" class="b"/><use xlink:href="#T" x=".5" y="-.1" class="c"/><use xlink:href="#S" x=".5" y=".4" class="b"/><use xlink:href="#T" x=".5" y=".4" class="c"/><use xlink:href="#U" class="e g"/><use xlink:href="#V" class="e p"/><use xlink:href="#W" class="h"/></g><g transform="matrix(.16076 1.23419 -1.13998 -.03203 130.8 -193.2)"><use xlink:href="#S" class="b"/><use xlink:href="#T" class="c"/><use xlink:href="#S" x="-.1" y=".6" class="b"/><use xlink:href="#T" x="-.1" y=".6" class="c"/><use xlink:href="#S" x=".5" y="-.1" class="b"/><use xlink:href="#T" x=".5" y="-.1" class="c"/><use xlink:href="#S" x=".5" y=".4" class="b"/><use xlink:href="#T" x=".5" y=".4" class="c"/><use xlink:href="#U" class="e g"/><use xlink:href="#V" class="e p"/><use xlink:href="#W" class="h"/></g><g transform="matrix(.36133 1.191 -1.12976 .15569 79.2 -195.3)"><use xlink:href="#S" class="b"/><use xlink:href="#T" class="c"/><use xlink:href="#S" x="-.1" y=".6" class="b"/><use xlink:href="#T" x="-.1" y=".6" class="c"/><use xlink:href="#S" x=".5" y="-.1" class="b"/><use xlink:href="#T" x=".5" y="-.1" class="c"/><use xlink:href="#S" x=".5" y=".4" class="b"/><use xlink:href="#T" x=".5" y=".4" class="c"/><use xlink:href="#U" class="e g"/><use xlink:href="#V" class="e p"/><use xlink:href="#W" class="h"/></g><g transform="matrix(.6365 1.06954 -1.05941 .42218 5.2 -185.8)"><use xlink:href="#S" class="b"/><use xlink:href="#T" class="c"/><use xlink:href="#S" x="-.1" y=".6" class="b"/><use xlink:href="#T" x="-.1" y=".6" class="c"/><use xlink:href="#S" x=".5" y="-.1" class="b"/><use xlink:href="#T" x=".5" y="-.1" class="c"/><use xlink:href="#S" x=".5" y=".4" class="b"/><use xlink:href="#T" x=".5" y=".4" class="c"/><use xlink:href="#U" class="e g"/><use xlink:href="#V" class="e p"/><use xlink:href="#W" class="h"/></g><g transform="matrix(.84825 .91078 -.9462 .63663 -56.5 -161.1)"><use xlink:href="#S" class="b"/><use xlink:href="#T" class="c"/><use xlink:href="#S" x="-.1" y=".6" class="b"/><use xlink:href="#T" x="-.1" y=".6" class="c"/><use xlink:href="#S" x=".5" y="-.1" class="b"/><use xlink:href="#T" x=".5" y="-.1" class="c"/><use xlink:href="#S" x=".5" y=".4" class="b"/><use xlink:href="#T" x=".5" y=".4" class="c"/><use xlink:href="#U" class="e g"/><use xlink:href="#V" class="e p"/><use xlink:href="#W" class="h"/></g><g transform="matrix(1.01734 .81327 -.79515 .92729 -110.8 -159)"><use xlink:href="#S" class="b"/><use xlink:href="#T" class="c"/><use xlink:href="#S" x="-.1" y=".6" class="b"/><use xlink:href="#T" x="-.1" y=".6" class="c"/><use xlink:href="#S" x=".5" y="-.1" class="b"/><use xlink:href="#T" x=".5" y="-.1" class="c"/><use xlink:href="#S" x=".5" y=".4" class="b"/><use xlink:href="#T" x=".5" y=".4" class="c"/><use xlink:href="#U" class="e g"/><use xlink:href="#V" class="e p"/><use xlink:href="#W" class="h"/></g><g transform="matrix(1.10335 .69211 -.68437 1.01181 -140 -133)"><use xlink:href="#S" class="b"/><use xlink:href="#T" class="c"/><use xlink:href="#S" x="-.1" y=".6" class="b"/><use xlink:href="#T" x="-.1" y=".6" class="c"/><use xlink:href="#S" x=".5" y="-.1" class="b"/><use xlink:href="#T" x=".5" y="-.1" class="c"/><use xlink:href="#S" x=".5" y=".4" class="b"/><use xlink:href="#T" x=".5" y=".4" class="c"/><use xlink:href="#U" class="e g"/><use xlink:href="#V" class="e p"/><use xlink:href="#W" class="h"/></g><g transform="matrix(1.23585 .41117 -.42532 1.14509 -193.5 -73)"><use xlink:href="#S" class="b"/><use xlink:href="#T" class="c"/><use xlink:href="#S" x="-.1" y=".6" class="b"/><use xlink:href="#T" x="-.1" y=".6" class="c"/><use xlink:href="#S" x=".5" y="-.1" class="b"/><use xlink:href="#T" x=".5" y="-.1" class="c"/><use xlink:href="#S" x=".5" y=".4" class="b"/><use xlink:href="#T" x=".5" y=".4" class="c"/><use xlink:href="#U" class="e g"/><use xlink:href="#V" class="e p"/><use xlink:href="#W" class="h"/></g><use xlink:href="#X" stroke="#007231" class="r t"/><g fill="#00bf52"><use xlink:href="#Y"/><use xlink:href="#Z"/><use xlink:href="#a"/><use xlink:href="#b"/><use xlink:href="#c"/><use xlink:href="#d"/></g><g transform="matrix(-1 0 0 1 348 0)"><use xlink:href="#X" x="174.2" stroke="#007231" class="r t"/><g fill="#00bf52"><use xlink:href="#Y" x="174.2"/><use xlink:href="#Z" x="174.2"/><use xlink:href="#a" x="174.2"/><use xlink:href="#b" x="174.2"/><use xlink:href="#c" x="174.2"/><use xlink:href="#d" x="174.2"/></g></g><path d="M102.8 137q-.4.6-1.2.8l-.7.2c-1.5 1.5-6.4 3.3-9 2.5-2.2-.6-2-2 .4-2 2.8.2 6 .2 8-1l.2-.6q.3-.6 1-1.1z" class="g"/><path fill="#915925" d="M101 137.8h-.2q-1.3 1.3-4 2.2c-2.7.9-3.6.7-4.8.3q-.9-.2-1.2-.5-.4-.4-.2-.5l.4-.4q.3-.2 1.3-.2c2.8.2 6 .2 8.1-1l.1-.2.5-1.2 1.2 1.1-1.3.4"/><path d="M100.3 138.1c-1 .8-6.4 2.2-9 1.4 2.1 1 6 .6 9-1.4" class="h"/><g transform="rotate(-57.8 137.8 176.7)scale(.7965)"><use xlink:href="#e" class="e g"/><use xlink:href="#f" class="f i"/><use xlink:href="#g" class="j"/><use xlink:href="#h"/><g class="f"><g class="k l"><use xlink:href="#i" class="d m"/><use xlink:href="#j" class="d n"/></g><use xlink:href="#k" class="d o"/></g></g><g transform="matrix(.62528 -.62396 .67932 .57432 -129.6 171.6)"><use xlink:href="#e" class="e g"/><use xlink:href="#f" class="f i"/><use xlink:href="#g" class="j"/><use xlink:href="#h"/><g class="f"><g class="k l"><use xlink:href="#i" class="d m"/><use xlink:href="#j" class="d n"/></g><use xlink:href="#k" class="d o"/></g></g><g transform="matrix(.65592 -.54508 .58572 .6104 -121.8 152.7)"><use xlink:href="#e" class="e g"/><use xlink:href="#f" class="f i"/><use xlink:href="#g" class="j"/><use xlink:href="#h"/><g class="f"><g class="k l"><use xlink:href="#i" class="d m"/><use xlink:href="#j" class="d n"/></g><use xlink:href="#k" class="d o"/></g></g><g transform="matrix(.6493 -.53046 .51015 .67515 -108.2 145.6)"><use xlink:href="#e" class="e g"/><use xlink:href="#f" class="f i"/><use xlink:href="#g" class="j"/><use xlink:href="#h"/><g class="f"><g class="k l"><use xlink:href="#i" class="d m"/><use xlink:href="#j" class="d n"/></g><use xlink:href="#k" class="d o"/></g></g><g transform="matrix(.73108 -.36967 .35478 .76178 -106.1 102.2)"><use xlink:href="#e" class="e g"/><use xlink:href="#f" class="f i"/><use xlink:href="#g" class="j"/><use xlink:href="#h"/><g class="f"><g class="k l"><use xlink:href="#i" class="d m"/><use xlink:href="#j" class="d n"/></g><use xlink:href="#k" class="d o"/></g></g><g transform="matrix(.84507 -.2099 .19903 .89124 -112.5 53.5)"><use xlink:href="#e" class="e g"/><use xlink:href="#f" class="f i"/><use xlink:href="#g" class="j"/><use xlink:href="#h"/><g class="f"><g class="k l"><use xlink:href="#i" class="d m"/><use xlink:href="#j" class="d n"/></g><use xlink:href="#k" class="d o"/></g></g><g transform="matrix(.98182 .10055 -.10655 .92656 -106.4 -18)"><use xlink:href="#e" class="e g"/><use xlink:href="#f" class="f i"/><use xlink:href="#g" class="j"/><use xlink:href="#h"/><g class="f"><g class="k l"><use xlink:href="#i" class="d m"/><use xlink:href="#j" class="d n"/></g><use xlink:href="#k" class="d o"/></g></g><g transform="matrix(.96204 .17249 -.17929 .92557 -94.8 -29.5)"><use xlink:href="#e" class="e g"/><use xlink:href="#f" class="f i"/><use xlink:href="#g" class="j"/><use xlink:href="#h"/><g class="f"><g class="k l"><use xlink:href="#i" class="d m"/><use xlink:href="#j" class="d n"/></g><use xlink:href="#k" class="d o"/></g></g><g transform="rotate(21.1 153.4 -217.1)"><use xlink:href="#e" class="e g"/><use xlink:href="#f" class="f i"/><use xlink:href="#g" class="j"/><use xlink:href="#h"/><g class="f"><g class="k l"><path d="M236.4 129.7a3 3 0 0 1-4.2 2 3 3 0 0 1 1-5.9v4l1.8-3.5a3 3 0 0 1 1.4 3.4z" class="d m"/><use xlink:href="#j" class="d n"/></g><use xlink:href="#k" class="d o"/></g></g><g transform="matrix(1.29503 .13887 -.172 1.20935 -227.3 -8.2)"><use xlink:href="#S" class="b"/><use xlink:href="#T" class="c"/><use xlink:href="#S" x="-.1" y=".6" class="b"/><use xlink:href="#T" x="-.1" y=".6" class="c"/><use xlink:href="#S" x=".5" y="-.1" class="b"/><use xlink:href="#T" x=".5" y="-.1" class="c"/><use xlink:href="#S" x=".4" y=".3" class="b"/><use xlink:href="#T" x=".4" y=".3" class="c"/></g><path d="m71 133-.4.4-.2.5v.3l-.3-.5H70v1h-1.1l.4.4H69l-.6.1-.4.3v.1l1.5-.1L71 137c.5.5.6.6 1.1.8l.7.2c1.5 1.5 6.5 3.3 9 2.5 2.2-.6 2-2-.4-2-2.8.2-5.9.2-8-1l-.2-.6a2 2 0 0 0-.9-1.1l-1.5-1.4z" class="g"/><path fill="#915925" d="m70.8 133.4-.2.5v.2a.2.2 0 0 1-.4 0v-.1.6a.2.2 0 0 1-.3.2h-.6.1v.3H69l-.5.2h1.1q.2 0 .3.2l.4.4.8.9c.4.5.5.5 1 .8l.7.1h.1c.8.8 2.4 1.6 4 2.2s3.7.7 4.9.3q.8-.2 1.1-.5.4-.4.3-.5 0-.2-.4-.4-.6-.2-1.4-.2a16 16 0 0 1-8-1l-.2-.2-.1-.6c-.3-.5-.3-.6-.9-1l-1-.7-.3-.4-.3-.3v-.6z"/><path d="m70 135.3 1.7 1.3q1 1 .8 1-.4 0-1.3-1zm3.5 2.8c1 .8 6.3 2.2 9 1.4-2.1 1-6.1.6-9-1.4" class="h"/><g class="d"><path fill="#b36f2f" d="m86.4 129.8-3.4-1 1.5-.5 3 1z"/><path fill="#875323" d="M83 128.7v-1.2l1.5-.4v1.2z"/><path fill="#cd8541" d="m83 127.5-1.7-.4 1.4 2.2 4.2 1.1 2-1.3-2.4-.7.2 1.1-3.7-.8z"/><path fill="#996b14" stroke="#5b400c" d="M254.5 366.3c1 2 2 3.3 1.7 5.4a41 41 0 0 0-21.6 18.3c-1.7.1-9.3-2.3-9.7-5.8a77 77 0 0 1 29.6-17.9z" class="r" transform="matrix(.24689 .01659 -.01752 .23377 23.7 39.2)"/><path fill="#eab95c" d="m72.6 132.8.2.3.9-.6q1.4-1.5 5.8-3a19 19 0 0 0-6.6 3z"/><path fill="#4c4c4c" stroke="#424242" stroke-width=".5" d="M256.8 365.2q1.5 2.4 2.3 5.5l79.5-29.5-10.2-3.1-7-2.2z" transform="matrix(.24689 .01659 -.01752 .23377 23.7 39.2)"/><path fill="#7b7b7b" d="m81.1 129.5 16.9-5.3 2.3.4-19 5.3z"/><path fill="#4c4c4c" stroke="#424242" stroke-width=".4" d="M256.5 364.6c2 2.9 2.4 5.2 3.2 7.6l-1.5.7-.6-1.3-1.3.3c-.3-2.7-1.6-4.7-2.5-5.8z" transform="matrix(.24689 .01659 -.01752 .23377 23.7 39.2)"/><path fill="#7b7b7b" d="m80.3 129 .7 1.4c0-.2 0-1-.5-1.5z"/><path fill="#35210e" d="m73.2 124.9.3 1.2c10 .3 17.1 3.3 23.9 6.6l.8-.7a87 87 0 0 0-25-7.1"/><path fill="#4f3114" d="M73.2 124.9v-1.5c10.9 2.3 17.4 5 25.7 7.6q-.3.7-.7 1a87 87 0 0 0-25-7.1"/><path fill="#6b411b" d="M74.1 122.6q-.6.3-.9.8c10.9 2.3 17.4 5 25.7 7.6-.2.4.2-.6 0-1.4-7.2-1.7-12.9-3.1-24.8-7"/><path fill="#543315" d="M74.1 122.6c-.4.2.5-.3 1-.3 12.1 4.6 18 5.5 23.4 6.4l.3 1c-7.1-1.8-12.8-3.2-24.7-7.1"/><path fill="#875323" d="m88.6 129.3-1.7 1.1 2.7-.8-.2-.4z"/><path fill="#cd8541" d="m74 126.5-.5-.4c10 .3 17.1 3.3 23.9 6.6l-.3.4a52 52 0 0 0-23.2-6.6"/></g></svg>